<?xml version="1.0" encoding="UTF-8"?>
<svg version="1.1" xmlns="http://www.w3.org/2000/svg" width="2313" height="2313">
<path d="M0 0 C2.77433416 0.92164622 5.54980924 1.83977613 8.32556152 2.75714111 C65.68757242 21.74566407 122.13688462 43.61749502 177.86560059 66.95196533 C177.53560059 67.61196533 177.20560059 68.27196533 176.86560059 68.95196533 C175.37347046 68.55424927 175.37347046 68.55424927 173.85119629 68.14849854 C107.58471085 50.51748742 40.87541839 35.45900848 -26.34714127 21.98574448 C-28.31450834 21.5913931 -30.28181239 21.19672715 -32.24905014 20.80173111 C-55.16084634 16.20145354 -78.07103037 11.7334711 -101.13439941 7.95196533 C-101.40902008 8.55231094 -101.68364075 9.15265656 -101.96658325 9.77119446 C-118.03811761 44.83980554 -140.26490167 77.24061199 -171.13439941 100.95196533 C-171.69498047 101.38364014 -172.25556152 101.81531494 -172.83312988 102.2600708 C-228.01262316 144.48789818 -291.98406258 152.50907489 -359.48957849 152.25614715 C-365.4378403 152.23713452 -371.38610885 152.23561086 -377.33439636 152.23207092 C-388.54971044 152.22282152 -399.76493466 152.19830611 -410.98020953 152.16802245 C-426.16975502 152.12791547 -441.35932585 152.11196603 -456.54891109 152.0945158 C-480.41080757 152.06647815 -504.27251462 152.0066619 -528.13439941 151.95196533 C-528.13439941 86.28196533 -528.13439941 20.61196533 -528.13439941 -47.04803467 C-602.88664093 -51.91161164 -602.88664093 -51.91161164 -677.66516113 -55.78094482 C-684.16421599 -56.08525262 -690.64996321 -56.51325862 -697.13439941 -57.04803467 C-697.25874863 -56.3415126 -697.38309784 -55.63499054 -697.51121521 -54.90705872 C-698.16187935 -51.92196311 -699.06911948 -49.17737038 -700.10534668 -46.3036499 C-700.51473984 -45.16297562 -700.924133 -44.02230133 -701.34593201 -42.84706116 C-702.01659447 -40.99554695 -702.01659447 -40.99554695 -702.70080566 -39.10662842 C-703.17123709 -37.80023055 -703.64136915 -36.49372484 -704.11122131 -35.18711853 C-705.37317081 -31.68068924 -706.63956873 -28.17588204 -707.9068985 -24.67139435 C-708.96623219 -21.74031572 -710.02294906 -18.80829675 -711.07962418 -15.87625885 C-717.73143757 2.58081273 -724.41140019 21.02773096 -731.13024902 39.46051025 C-734.86357891 49.70291589 -738.5839194 59.9498989 -742.29064941 70.20196533 C-742.74701141 71.46390061 -743.20338149 72.72583297 -743.65975952 73.98776245 C-745.4475963 78.9316355 -747.23535325 83.87553624 -749.02069092 88.8203125 C-756.63160475 109.89962017 -764.38637762 130.92162045 -772.13439941 151.95196533 C-815.69439941 151.95196533 -859.25439941 151.95196533 -904.13439941 151.95196533 C-907.41377441 142.54696533 -910.69314941 133.14196533 -914.07189941 123.45196533 C-921.61817443 101.82864182 -929.20163491 80.21947937 -936.86413574 58.63702393 C-940.55105774 48.25107798 -944.22643025 37.86124336 -947.88049316 27.46368408 C-948.28248932 26.31984253 -948.68448547 25.17600098 -949.09866333 23.99749756 C-950.71931242 19.38521425 -952.33961587 14.77281013 -953.9588623 10.16003418 C-958.15925217 -1.80409209 -962.37730032 -13.76104626 -966.66955566 -25.69256592 C-967.02515564 -26.68220337 -967.38075562 -27.67184082 -967.74713135 -28.69146729 C-969.41425539 -33.32943599 -971.08644689 -37.96546205 -972.7677002 -42.59832764 C-973.35233639 -44.22082731 -973.93681875 -45.84338243 -974.52111816 -47.46600342 C-974.78884537 -48.19761185 -975.05657257 -48.92922028 -975.33241272 -49.68299866 C-976.38298867 -52.61245407 -977.13439941 -54.90956097 -977.13439941 -58.04803467 C-977.84842422 -57.98255432 -978.56244904 -57.91707397 -979.29811096 -57.84960938 C-986.9478406 -57.17639633 -994.58282176 -56.76490471 -1002.25549316 -56.46990967 C-1004.86855716 -56.36333992 -1007.48159223 -56.25619455 -1010.09460449 -56.14837646 C-1011.11809305 -56.10645628 -1011.11809305 -56.10645628 -1012.16225815 -56.06368923 C-1088.65814309 -52.92246555 -1164.99246737 -47.2062263 -1438.87496948 -12.20603943 C-1440.21309189 -11.97567741 -1440.21309189 -11.97567741 -1441.57824707 -11.74066162 C-1442.34351715 -11.60610062 -1443.10878723 -11.47153961 -1443.89724731 -11.332901 C-1446.33067707 -11.02304178 -1448.68391206 -11.0001484 -1451.13439941 -11.04803467 C-1444.64114678 4.39373176 -1437.88064568 18.94427409 -1427.13439941 31.95196533 C-1426.3132666 32.94969971 -1425.49213379 33.94743408 -1424.64611816 34.97540283 C-1405.17036103 57.80210351 -1377.44283549 68.45271304 -1348.13439941 70.95196533 C-1320.56026913 72.76294476 -1291.10642183 67.35851177 -1269.52893066 49.09259033 C-1268.73873535 48.38618408 -1267.94854004 47.67977783 -1267.13439941 46.95196533 C-1266.3132666 46.22493408 -1265.49213379 45.49790283 -1264.64611816 44.74884033 C-1249.83221493 30.83344756 -1241.96840148 12.745471 -1235.13439941 -6.04803467 C-1198.17439941 -6.04803467 -1161.21439941 -6.04803467 -1123.13439941 -6.04803467 C-1126.94682131 24.45134049 -1141.26310832 55.85477825 -1160.13439941 79.95196533 C-1160.77506348 80.80145752 -1161.41572754 81.65094971 -1162.07580566 82.52618408 C-1170.87152581 93.92940373 -1180.70540607 104.18759684 -1192.13439941 112.95196533 C-1193.09346191 113.73829346 -1194.05252441 114.52462158 -1195.04064941 115.33477783 C-1231.84637548 144.98383494 -1282.3480935 158.93570056 -1329.04846191 159.15509033 C-1330.0532811 159.16210464 -1331.05810028 159.16911896 -1332.09336853 159.17634583 C-1335.31542499 159.19374268 -1338.53729772 159.20019737 -1341.75939941 159.20196533 C-1343.40994827 159.20297745 -1343.40994827 159.20297745 -1345.09384155 159.20401001 C-1360.99437214 159.18849701 -1376.45456368 158.81484057 -1392.13439941 155.95196533 C-1393.07187012 155.79631104 -1394.00934082 155.64065674 -1394.97521973 155.48028564 C-1432.1714061 149.24148773 -1468.26485722 134.48920883 -1497.13439941 109.95196533 C-1497.97615723 109.23911377 -1498.81791504 108.52626221 -1499.68518066 107.79180908 C-1502.22614634 105.5669046 -1504.68626292 103.27876561 -1507.13439941 100.95196533 C-1507.68708496 100.43182861 -1508.23977051 99.91169189 -1508.8092041 99.37579346 C-1523.97084493 85.02070956 -1535.80151005 69.05752369 -1546.13439941 50.95196533 C-1546.53642578 50.2510376 -1546.93845215 49.55010986 -1547.35266113 48.82794189 C-1563.13439941 21.01303492 -1563.13439941 21.01303492 -1563.13439941 10.95196533 C-1571.93544443 12.95161453 -1580.73397084 14.96208295 -1589.53076172 16.98036194 C-1594.46551363 18.11228707 -1599.40094997 19.24109905 -1604.33752441 20.36505127 C-1644.94830487 29.61664805 -1685.49287205 39.24529118 -1725.63439941 50.38165283 C-1726.58818481 50.6462027 -1727.54197021 50.91075256 -1728.5246582 51.18331909 C-1732.90546105 52.40248855 -1737.28164426 53.63572341 -1741.65197754 54.89190674 C-1742.41993652 55.10944611 -1743.18789551 55.32698547 -1743.97912598 55.55111694 C-1745.38873626 55.9505603 -1746.79647431 56.35670089 -1748.20178223 56.77102661 C-1751.42887984 57.6797088 -1752.87020298 58.04003081 -1756.13439941 56.95196533 C-1742.61677035 50.38694413 -1729.00871749 44.16216429 -1715.13439941 38.38946533 C-1714.2253183 38.01000763 -1713.31623718 37.63054993 -1712.37960815 37.23959351 C-1625.45882734 1.02845485 -1535.2142949 -27.41063322 -1444.13439941 -51.04803467 C-1443.09315918 -51.31897949 -1442.05191895 -51.58992432 -1440.97912598 -51.86907959 C-1348.58355636 -75.88590376 -1254.77070971 -94.1511364 -936.57189941 -128.73553467 C-934.81190613 -128.82694229 -934.81190613 -128.82694229 -933.01635742 -128.92019653 C-906.42222797 -130.28406422 -879.82149024 -131.14944318 -853.19689941 -131.61053467 C-851.41666382 -131.6418045 -851.41666382 -131.6418045 -849.60046387 -131.67370605 C-759.69900499 -133.22864322 -669.7652274 -130.01912722 0 0 Z M-868.13439941 -60.04803467 C-864.95120512 -47.21761181 -864.95120512 -47.21761181 -861.42736816 -34.49725342 C-860.92444608 -32.75669307 -860.42211453 -31.015962 -859.92028809 -29.27508545 C-859.66008881 -28.37437317 -859.39988953 -27.47366089 -859.13180542 -26.5456543 C-853.31098816 -6.34924544 -847.96774514 13.95053238 -842.82189941 34.32696533 C-842.56914057 35.32776815 -842.56914057 35.32776815 -842.31127548 36.34878922 C-840.24172482 44.54719587 -838.18276909 52.74824055 -836.13439941 60.95196533 C-835.80439941 60.95196533 -835.47439941 60.95196533 -835.13439941 60.95196533 C-834.96537109 60.20890137 -834.79634277 59.4658374 -834.62219238 58.70025635 C-825.40353177 18.58670663 -813.38002532 -20.77242964 -801.13439941 -60.04803467 C-823.24439941 -60.04803467 -845.35439941 -60.04803467 -868.13439941 -60.04803467 Z M-417.13439941 -37.04803467 C-417.13439941 -4.37803467 -417.13439941 28.29196533 -417.13439941 61.95196533 C-401.19127441 62.01384033 -385.24814941 62.07571533 -368.82189941 62.13946533 C-361.32861938 62.18043335 -361.32861938 62.18043335 -353.68395996 62.222229 C-349.12443086 62.23227504 -349.12443086 62.23227504 -344.56489563 62.23829651 C-342.56654341 62.24284095 -340.56819831 62.25325896 -338.56990051 62.26869202 C-321.67450348 62.39241706 -305.18296225 61.36916782 -288.94689941 56.26446533 C-288.1264917 56.01172852 -287.30608398 55.7589917 -286.46081543 55.49859619 C-278.2309672 52.84773889 -270.63924739 49.21738699 -263.13439941 44.95196533 C-262.1173291 44.37446533 -261.10025879 43.79696533 -260.05236816 43.20196533 C-254.28056736 39.7146675 -249.3299674 35.68458202 -244.42346191 31.06524658 C-242.13439941 28.95196533 -242.13439941 28.95196533 -239.60705566 26.98321533 C-232.76628551 21.36362532 -227.7301751 13.56876297 -222.82189941 6.26446533 C-222.41366943 5.65949219 -222.00543945 5.05451904 -221.58483887 4.43121338 C-217.29095401 -2.01763863 -217.29095401 -2.01763863 -214.13439941 -9.04803467 C-214.46439941 -10.03803467 -214.79439941 -11.02803467 -215.13439941 -12.04803467 C-255.26743571 -17.97654978 -295.42071637 -23.61303164 -335.69689941 -28.48553467 C-336.53829216 -28.58755943 -337.37968491 -28.6895842 -338.2465744 -28.79470062 C-350.20548833 -30.2444166 -362.16785387 -31.66273206 -374.13439941 -33.04803467 C-374.96019249 -33.14374001 -375.78598557 -33.23944534 -376.63680267 -33.33805084 C-381.66152378 -33.91953461 -386.68688072 -34.49503921 -391.71314812 -35.06300545 C-393.28338263 -35.24080832 -394.85348238 -35.41980607 -396.4234333 -35.60009575 C-398.59091076 -35.84844587 -400.75890603 -36.09164679 -402.92712402 -36.33343506 C-404.15402451 -36.47197403 -405.38092499 -36.610513 -406.64500427 -36.75325012 C-410.13043432 -37.0476997 -413.63655391 -37.04803467 -417.13439941 -37.04803467 Z " fill="#415A81" transform="translate(1938.1343994140625,1126.0480346679688)"/>
<path d="M0 0 C55.62714345 -0.1209091 55.62714345 -0.1209091 79.06640625 -0.14648438 C84.42073594 -0.15237382 89.7750654 -0.15841727 95.12939453 -0.16479492 C95.80029637 -0.16558617 96.47119821 -0.16637741 97.16243041 -0.16719264 C107.2686292 -0.17936924 117.37478488 -0.20038703 127.48095703 -0.22631836 C139.23805551 -0.25638979 150.9951154 -0.27561477 162.75225127 -0.28226548 C168.96712949 -0.28614792 175.18189739 -0.29515533 181.39673996 -0.31719017 C231.93991196 -0.48925982 231.93991196 -0.48925982 252 3 C253.0759631 3.18391611 254.15192619 3.36783222 255.26049423 3.55732155 C289.38444048 9.47709943 323.78459908 21.48719758 352 42 C353.43279297 43.02480469 353.43279297 43.02480469 354.89453125 44.0703125 C380.68445109 62.93109267 401.26182122 86.22028444 417 114 C417.3412793 114.59216309 417.68255859 115.18432617 418.03417969 115.79443359 C449.99728787 171.53870601 456.88217783 245.43788102 444 308 C443.67 308.66 443.34 309.32 443 310 C436.68883798 308.68182094 430.61570852 307.03404359 424.484375 305.05078125 C422.59843888 304.45018885 420.7123646 303.85003017 418.82617188 303.25024414 C417.83673584 302.9344339 416.8472998 302.61862366 415.82788086 302.29324341 C388.39861527 293.55311582 360.73805104 285.69401656 333 278 C333.01571045 276.73220703 333.0314209 275.46441406 333.04760742 274.15820312 C333.83003467 240.91915749 333.83003467 240.91915749 330 208 C329.80132324 206.98824707 329.60264648 205.97649414 329.39794922 204.93408203 C326.43362639 190.33007362 322.24287712 176.53724943 316 163 C315.53255371 161.98437988 315.53255371 161.98437988 315.05566406 160.94824219 C301.63123006 132.49412441 277.97749222 110.20944821 248.4765625 99.27734375 C225.6157956 91.19140133 202.55083476 89.73341811 178.48046875 89.5859375 C176.73457036 89.56892621 174.98867971 89.55110173 173.24279785 89.5324707 C166.89112012 89.47021441 160.53929788 89.4234721 154.1875 89.375 C139.935625 89.25125 125.68375 89.1275 111 89 C111 135.53 111 182.06 111 230 C94.83 227.69 78.66 225.38 62 223 C41.54 220.36 21.08 217.72 0 215 C0 144.05 0 73.1 0 0 Z " fill="#2B358C" transform="translate(1410,768)"/>
<path d="M0 0 C0.48774902 0.44520996 0.97549805 0.89041992 1.47802734 1.34912109 C2.29658203 2.09548828 3.11513672 2.84185547 3.95849609 3.61083984 C31.10732094 29.60644027 50.39045654 68.27467658 55.47802734 105.34912109 C55.47802734 107.32912109 55.47802734 109.30912109 55.47802734 111.34912109 C18.84802734 111.34912109 -17.78197266 111.34912109 -55.52197266 111.34912109 C-59.48197266 100.95412109 -59.48197266 100.95412109 -63.52197266 90.34912109 C-75.53864709 65.66031725 -93.70896236 48.50837673 -119.52197266 39.34912109 C-150.82130058 29.26571089 -186.79635198 30.45891708 -216.45214844 45.11767578 C-248.41740187 61.7843838 -265.82396359 91.95231806 -276.57617188 125.25195312 C-283.59660831 148.241436 -286.71822405 172.56182486 -286.61962891 196.54833984 C-286.61821396 197.86453812 -286.61679901 199.18073639 -286.61534119 200.53681946 C-286.6115648 203.99728373 -286.6017776 207.4577045 -286.59063721 210.91815186 C-286.5803168 214.46479708 -286.57582104 218.01144949 -286.57080078 221.55810547 C-286.56014977 228.48846163 -286.54313376 235.41878926 -286.52197266 242.34912109 C-297.86212982 245.67305193 -309.20243464 248.99491613 -320.57666016 252.20068359 C-340.96577793 257.95467248 -361.25599535 263.94969795 -381.45703125 270.3359375 C-382.7412925 270.73962051 -382.7412925 270.73962051 -384.05149841 271.15145874 C-385.65251844 271.65501311 -387.25241781 272.16214978 -388.85096741 272.67349243 C-391.85209493 273.61623776 -394.35574983 274.34912109 -397.52197266 274.34912109 C-401.65100486 253.59385255 -402.91177172 232.92251354 -402.83447266 211.78662109 C-402.83264984 210.74318542 -402.83082703 209.69974976 -402.82894897 208.62469482 C-402.61033209 133.95741419 -379.84774401 61.17663449 -326.52197266 7.34912109 C-309.51531569 -9.4785773 -289.20616418 -22.68245268 -267.52197266 -32.65087891 C-266.37599609 -33.18197266 -265.23001953 -33.71306641 -264.04931641 -34.26025391 C-181.09491346 -71.21353559 -68.42481905 -61.89421533 0 0 Z " fill="#2B358C" transform="translate(759.52197265625,814.65087890625)"/>
<path d="M0 0 C7.78796953 -0.10261565 15.57576064 -0.17196781 23.36425781 -0.21972656 C26.00618926 -0.23737956 28.64721635 -0.26682322 31.2890625 -0.30175781 C62.28993727 -0.7010115 87.66128026 4.4615365 112 25 C112.59039063 25.44472656 113.18078125 25.88945313 113.7890625 26.34765625 C126.23823374 35.99428894 135.75439192 51.86162043 140.76953125 66.546875 C141.02195587 67.2743544 141.27438049 68.0018338 141.53445435 68.75135803 C144.93209365 78.60740372 148.15106518 88.52364419 151.375 98.4375 C152.07095338 100.57291998 152.76691714 102.70833657 153.46289062 104.84375 C160.11250068 125.26836435 166.67403733 145.72147299 173.18692017 166.19007874 C174.85762309 171.43790424 176.54340153 176.68042638 178.24609375 181.91796875 C178.6169812 183.0635022 178.98786865 184.20903564 179.36999512 185.38928223 C180.08884856 187.60845571 180.81112488 189.82652408 181.53723145 192.04333496 C181.85945679 193.04030396 182.18168213 194.03727295 182.51367188 195.06445312 C182.80109253 195.94653442 183.08851318 196.82861572 183.38464355 197.73742676 C184 200 184 200 184 203 C183.39169342 203.03092239 182.78338684 203.06184479 182.15664673 203.09370422 C174.31242404 203.49349069 166.46861308 203.90093257 158.625 204.3125 C156.73121109 204.41179306 156.73121109 204.41179306 154.79916382 204.51309204 C136.26150668 205.49159222 117.74534457 206.63065528 99.23876953 208.08520508 C90.46349928 208.76367967 81.80833442 209.18474922 73 209 C63.95292155 183.51644811 54.94308697 158.0202471 46 132.5 C39.84163443 114.927088 33.66144583 97.36229422 27.4375 79.8125 C24.62394005 71.87537553 21.81145603 63.93786995 19 56 C18.58331055 54.82358948 18.16662109 53.64717896 17.73730469 52.43511963 C15.06678884 44.89390212 12.40013716 37.35133831 9.73782349 29.80722046 C8.87508215 27.36413316 8.01122161 24.92144079 7.14620972 22.47915649 C5.94740891 19.09390103 4.75251792 15.70729039 3.55859375 12.3203125 C3.0162207 10.7928112 3.0162207 10.7928112 2.46289062 9.23445129 C2.13667725 8.30646225 1.81046387 7.37847321 1.47436523 6.42236328 C1.04497902 5.20723557 1.04497902 5.20723557 0.60691833 3.96755981 C0 2 0 2 0 0 Z " fill="#2B358C" transform="translate(855,768)"/>
<path d="M0 0 C2.43684067 0.01507725 4.87369038 0.02876026 7.31054688 0.04101562 C13.22806485 0.0737724 19.14523917 0.12372945 25.0625 0.1875 C23.6902295 7.08145218 21.67135585 13.47386951 19.23046875 20.05859375 C18.84679642 21.10805679 18.46312408 22.15751984 18.06782532 23.23878479 C16.80029471 26.70274065 15.52504114 30.16380245 14.25 33.625 C13.34960129 36.08244089 12.44987439 38.54012802 11.55078125 40.99804688 C10.14614247 44.83796691 8.74121125 48.67777657 7.33383179 52.51669312 C2.80874684 64.86173612 -1.66770723 77.22421907 -6.13690186 89.58959961 C-8.31458631 95.61382146 -10.4950902 101.63702221 -12.67578125 107.66015625 C-13.10761719 108.85291168 -13.53945312 110.04566711 -13.984375 111.27456665 C-18.43172889 123.5560338 -22.88685989 135.83467056 -27.34814453 148.11108398 C-28.17834792 150.39581007 -29.00827828 152.6806354 -29.83789062 154.96557617 C-35.80467854 171.39774398 -41.84867443 187.80020557 -47.9375 204.1875 C-48.48538681 204.16466446 -49.03327362 204.14182892 -49.59776306 204.11830139 C-56.68996215 203.82355579 -63.7824038 203.5350248 -70.875 203.25 C-72.02141968 203.20392609 -73.16783936 203.15785217 -74.34899902 203.11038208 C-91.7716365 202.41582976 -109.19144271 201.86380067 -126.62475586 201.52954102 C-136.09010076 201.33965538 -145.49681648 200.91484826 -154.9375 200.1875 C-153.67157722 193.93571396 -151.99682572 187.94536547 -149.953125 181.90625 C-149.66124802 181.03208435 -149.36937103 180.1579187 -149.06864929 179.25726318 C-148.11284904 176.39911643 -147.15035825 173.54327601 -146.1875 170.6875 C-145.5108931 168.67033324 -144.83454623 166.65307925 -144.15844727 164.63574219 C-139.207045 149.88087484 -134.21031861 135.14097737 -129.15283203 120.42211914 C-128.57709486 118.74627492 -128.00141132 117.07041227 -127.42578125 115.39453125 C-127.14134155 114.56643448 -126.85690186 113.73833771 -126.56384277 112.88514709 C-124.73821639 107.55799117 -122.94180699 102.22175304 -121.16401672 96.87844849 C-119.93295505 93.18053488 -118.69327846 89.48553257 -117.45315552 85.79064941 C-116.8719845 84.05125843 -116.29486803 82.31050595 -115.72238159 80.5682373 C-110.34874196 64.22253793 -103.94000187 49.58798305 -92.9375 36.1875 C-92.39867187 35.48496094 -91.85984375 34.78242187 -91.3046875 34.05859375 C-79.26721029 19.08735954 -60.21371232 8.353927 -41.9375 3.1875 C-40.98141846 2.91462158 -40.02533691 2.64174316 -39.0402832 2.3605957 C-26.18465679 -0.75405824 -13.14503618 -0.14217133 0 0 Z " fill="#2B358C" transform="translate(1324.9375,767.8125)"/>
<path d="M0 0 C1.5144873 0.01244751 1.5144873 0.01244751 3.05957031 0.02514648 C17.7693868 0.35731126 28.0580563 5.60127142 39.6875 14.4375 C39.76097656 13.38949219 39.76097656 13.38949219 39.8359375 12.3203125 C39.91070313 11.41023438 39.98546875 10.50015625 40.0625 9.5625 C40.13210938 8.65757813 40.20171875 7.75265625 40.2734375 6.8203125 C40.6875 4.4375 40.6875 4.4375 42.6875 2.4375 C45.41447223 2.26579097 48.02656468 2.2050432 50.75 2.25 C51.49572266 2.25064453 52.24144531 2.25128906 53.00976562 2.25195312 C58.54721841 2.29721841 58.54721841 2.29721841 59.6875 3.4375 C59.79160781 4.8329297 59.82710902 6.23355559 59.83467102 7.63284302 C59.84182632 8.53809723 59.84898163 9.44335144 59.85635376 10.3760376 C59.85904266 11.37745789 59.86173157 12.37887817 59.86450195 13.41064453 C59.87107315 14.45958893 59.87764435 15.50853333 59.88441467 16.58926392 C59.90422245 20.08294745 59.91583359 23.57658761 59.92578125 27.0703125 C59.92985678 28.26425503 59.9339323 29.45819756 59.93813133 30.68832016 C59.95903474 37.02089009 59.97331174 43.35343814 59.98266602 49.68603516 C59.99367354 56.20107445 60.02799549 62.7157668 60.06783772 69.23068428 C60.09412133 74.25821523 60.10236879 79.28566553 60.10594749 84.31325912 C60.11079175 86.71238392 60.1223433 89.11150564 60.14098549 91.5105629 C60.28515832 111.31269218 59.29322889 129.18989999 45.3125 144.625 C30.63401526 158.4867871 11.84194697 161.24589177 -7.6015625 160.7890625 C-14.37500647 160.48188184 -20.08570917 159.22198389 -26.3125 156.4375 C-27.72595703 155.82455078 -27.72595703 155.82455078 -29.16796875 155.19921875 C-37.88523192 151.13619421 -37.88523192 151.13619421 -40.3125 147.4375 C-40.44248124 142.75817524 -37.31838737 137.90520834 -34.3125 134.4375 C-32.46875 133.55859375 -32.46875 133.55859375 -30.3125 133.4375 C-27.83203125 134.36328125 -27.83203125 134.36328125 -25.125 135.75 C-12.9360845 141.97830382 2.74351651 142.50256593 15.8125 138.8125 C25.82746275 135.18573458 33.43426833 129.49524173 38.5 120.0625 C39.88325108 115.83994409 40.39709912 111.85359615 40.6875 107.4375 C39.82125 108.283125 38.955 109.12875 38.0625 110 C26.9771871 119.43145573 12.23741326 124.18987889 -2.22265625 123.71484375 C-18.53581787 122.25057766 -31.88432023 116.19454826 -43.3125 104.4375 C-43.94671875 103.82390625 -44.5809375 103.2103125 -45.234375 102.578125 C-56.43825037 90.97765227 -60.838744 75.05351693 -60.73461914 59.29760742 C-60.14443089 40.90114933 -52.17245946 26.98469936 -39.3125 14.4375 C-28.25108106 4.52873349 -14.71212837 -0.15648579 0 0 Z M-30.1953125 32.453125 C-38.84642128 43.49524374 -41.65117 55.54066745 -40.3125 69.4375 C-37.99764304 81.34445887 -31.19321042 91.4460948 -21.3125 98.4375 C-11.21756243 104.57940376 -1.98973108 106.50358938 9.6875 104.4375 C20.62483528 101.60189456 29.94909143 94.12106447 35.6875 84.4375 C41.34349768 73.38678714 43.72217239 62.53823575 40.96875 50.22265625 C38.97288801 44.48455304 36.18317386 39.39065351 32.6875 34.4375 C32.130625 33.591875 31.57375 32.74625 31 31.875 C22.68566965 23.11124639 12.17399078 18.38005772 0.125 17.9375 C-11.81570438 18.39292615 -22.0486838 23.73183785 -30.1953125 32.453125 Z " fill="#2B358C" transform="translate(1422.3125,1364.5625)"/>
<path d="M0 0 C14.11766491 11.14458793 22.45717975 24.84108385 24.8125 42.8125 C24.90383771 44.2067433 24.96463837 45.60321566 25 47 C25.03867187 47.95003906 25.07734375 48.90007812 25.1171875 49.87890625 C25.29730793 57.5540381 25.29730793 57.5540381 23 61 C21.20778465 61.36914349 21.20778465 61.36914349 19.00106812 61.36076355 C18.16531754 61.36488754 17.32956696 61.36901154 16.4684906 61.3732605 C15.54995804 61.36247467 14.63142548 61.35168884 13.68505859 61.34057617 C12.71916306 61.34101425 11.75326752 61.34145233 10.75810242 61.34190369 C7.55467754 61.339808 4.35177132 61.31644007 1.1484375 61.29296875 C-1.0683056 61.28737557 -3.28505241 61.28310416 -5.50180054 61.28010559 C-11.34462673 61.26863494 -17.18723024 61.2391486 -23.02996826 61.20599365 C-28.98869819 61.1753406 -34.947464 61.16161045 -40.90625 61.14648438 C-52.60426466 61.11428108 -64.30211384 61.06305791 -76 61 C-75.21090967 62.76547668 -74.41862762 64.52952704 -73.625 66.29296875 C-73.18414063 67.27547607 -72.74328125 68.2579834 -72.2890625 69.27026367 C-70.79631363 72.43132904 -69.08676027 75.19591589 -67 78 C-66.278125 78.99 -65.55625 79.98 -64.8125 81 C-58.2604664 88.65743804 -49.05414665 92.66382454 -39.25 93.875 C-27.25732367 94.58489394 -17.25186706 90.27935441 -8.1875 82.625 C-6 81 -6 81 -3.640625 80.578125 C0.20268246 81.19214453 1.18865305 83.0302565 3.4375 86.125 C4.15808594 87.07632812 4.87867188 88.02765625 5.62109375 89.0078125 C7 92 7 92 6.58203125 95.08203125 C1.81078854 103.88232336 -9.88085627 108.14413602 -18.90625 111.125 C-34.66148603 115.58102635 -50.75109059 113.34096896 -65.1171875 105.7265625 C-79.74847359 96.96365132 -90.76652162 83.5727065 -95.1796875 66.953125 C-99.21925346 49.10554861 -96.11772204 31.85562512 -86.75 16.25 C-77.85972874 3.13351842 -65.25313369 -5.51380253 -49.89453125 -9.375 C-32.6463829 -12.14300776 -14.6083173 -10.21946145 0 0 Z M-68.3125 24.8125 C-71.99369786 29.61054831 -76 35.72949209 -76 42 C-48.94 42 -21.88 42 6 42 C3.46731194 30.60290375 -1.08639341 21.60907106 -11 15 C-31.23934988 4.20568006 -53.18411401 7.06520373 -68.3125 24.8125 Z " fill="#2B358C" transform="translate(629,1375)"/>
<path d="M0 0 C11.49495537 9.18222531 18.8240722 23.94584806 20.5859375 38.37890625 C20.74118751 41.46370263 20.77094693 44.54060559 20.7734375 47.62890625 C20.78568359 48.44359375 20.79792969 49.25828125 20.81054688 50.09765625 C20.81574989 52.19273799 20.7088432 54.28742621 20.5859375 56.37890625 C17.88367292 59.08117083 15.7880548 58.61555022 12.1178894 58.62774658 C10.75411667 58.61696075 10.75411667 58.61696075 9.36279297 58.60595703 C8.406651 58.60624908 7.45050903 58.60654114 6.46539307 58.60684204 C3.29454578 58.60544501 0.12393141 58.58986624 -3.046875 58.57421875 C-5.24119946 58.57048995 -7.43552558 58.56764235 -9.62985229 58.56564331 C-15.41343764 58.5579964 -21.19692299 58.53833884 -26.98046875 58.51623535 C-32.87889249 58.49579968 -38.77733234 58.48664648 -44.67578125 58.4765625 C-56.25525234 58.45509394 -67.83464911 58.42094527 -79.4140625 58.37890625 C-78.64484218 60.29129178 -77.86876168 62.20091877 -77.08984375 64.109375 C-76.65841064 65.17309326 -76.22697754 66.23681152 -75.7824707 67.33276367 C-71.52232142 76.81606118 -64.07780708 83.96487641 -54.6640625 88.25390625 C-44.40136032 92.14754452 -34.69466562 92.38293062 -24.4140625 88.37890625 C-17.61431165 84.75198014 -17.61431165 84.75198014 -11.91796875 79.66015625 C-10.4140625 78.37890625 -10.4140625 78.37890625 -7.99609375 77.8984375 C-4.3704455 78.57310427 -3.33353152 80.18712418 -1.1015625 83.06640625 C-0.40417969 83.93652344 0.29320312 84.80664062 1.01171875 85.703125 C2.74698108 88.65264038 3.17576903 90.02734018 2.5859375 93.37890625 C-2.9463047 101.47708973 -16.59663577 107.33018619 -25.8515625 109.87890625 C-42.94710633 112.59716322 -58.66599338 109.31765389 -73.4140625 100.37890625 C-77.03680707 97.62601577 -80.24546177 94.63868973 -83.4140625 91.37890625 C-84.04828125 90.7653125 -84.6825 90.15171875 -85.3359375 89.51953125 C-96.28349241 78.18445228 -100.9453011 62.39961427 -100.83618164 46.95141602 C-100.2477318 29.64713211 -93.43002926 14.84134673 -81.4140625 2.37890625 C-57.18484947 -18.10192773 -25.50134098 -17.12468691 0 0 Z M-72.65234375 23.078125 C-76.74532517 28.42350428 -78.3004005 32.69693423 -79.4140625 39.37890625 C-52.6840625 39.37890625 -25.9540625 39.37890625 1.5859375 39.37890625 C0.19146423 28.22312006 -4.57396848 20.40404291 -13.4140625 13.37890625 C-34.27797866 0.50681983 -57.01412354 4.79769076 -72.65234375 23.078125 Z " fill="#2B358C" transform="translate(1649.4140625,1377.62109375)"/>
<path d="M0 0 C14.03924287 10.83660354 22.41202008 25.46145917 25 43 C26.5751796 60.6919562 21.89644892 76.04231887 11.25 90.1875 C1.50792906 101.83001281 -11.87404295 109.87208107 -27 112 C-44.95238892 113.47951991 -60.78254081 109.12549289 -75.3125 98.3125 C-88.83932069 86.78800474 -95.76908697 71.19765445 -97.28515625 53.7109375 C-97.77357484 36.25528165 -91.8642623 20.64740809 -80.44921875 7.46875 C-58.64658079 -14.5077527 -25.34383978 -17.78638409 0 0 Z M-67.07421875 21.515625 C-75.85481054 32.84312273 -78.20403621 44.98790553 -77 59 C-74.81329388 69.38373021 -68.40765153 79.49185493 -60 86 C-49.19828561 92.54740789 -39.52554594 95.36034157 -27 93 C-15.67200435 89.89206273 -6.81728486 82.88048248 -0.5 73 C5.61690883 61.59709192 7.18606344 49.24195601 3.4375 36.6875 C-1.43623655 23.99192753 -10.47792382 14.7728962 -22.640625 8.91015625 C-39.14704858 2.54261205 -55.44182949 9.48694192 -67.07421875 21.515625 Z " fill="#2B358C" transform="translate(1314,1376)"/>
<path d="M0 0 C0.86625 0.350625 1.7325 0.70125 2.625 1.0625 C16.94195342 7.50512904 28.01213724 19.66374575 34.00390625 34.09375 C39.91790733 51.34871786 39.68151328 68.6675816 31.8125 85.25 C23.32681807 101.0722611 11.15727086 111.04696048 -5.7578125 116.96484375 C-21.75989803 121.69570555 -38.42082095 119.57578988 -53.0546875 111.78125 C-68.28953479 102.5676023 -78.27193103 88.88698613 -82.8125 71.75 C-86.06461455 55.91930446 -84.0623102 39.48452726 -75.6875 25.51953125 C-66.13723326 11.26045244 -53.30390426 0.58695944 -36.3046875 -3.52734375 C-23.89062807 -5.30287707 -11.64838981 -4.91820903 0 0 Z M-53.8828125 28.015625 C-55.39875142 29.95054201 -56.72610407 31.89889892 -58 34 C-58.37640625 34.61359375 -58.7528125 35.2271875 -59.140625 35.859375 C-65.10427435 46.62954771 -66.25470089 58.12066249 -63.2421875 69.984375 C-61.19534196 76.21091352 -58.31877818 81.09703927 -54 86 C-53.48695312 86.60585937 -52.97390625 87.21171875 -52.4453125 87.8359375 C-45.54973178 95.39138241 -36.24195553 100.27613247 -26 101 C-12.59158032 101.12464666 -2.84394341 96.5587091 6.71875 87.34375 C15.30870278 78.05257659 18.5526476 66.84117779 18.30859375 54.4375 C17.0815686 40.76937177 10.60613851 30.39859032 0.26171875 21.6875 C-17.21135522 8.65059507 -39.35392622 12.46187952 -53.8828125 28.015625 Z " fill="#2B358C" transform="translate(1114,1369)"/>
<path d="M0 0 C1.46751239 0.00399142 2.93502584 0.01874717 4.40234375 0.04296875 C5.14806641 0.04361328 5.89378906 0.04425781 6.66210938 0.04492188 C12.19956216 0.09018716 12.19956216 0.09018716 13.33984375 1.23046875 C13.46169518 2.58030623 13.51751206 3.93621576 13.54516602 5.29125977 C13.56511124 6.15207657 13.58505646 7.01289337 13.60560608 7.89979553 C13.62231857 8.83520676 13.63903107 9.77061798 13.65625 10.734375 C13.6770311 11.68738998 13.69781219 12.64040497 13.71922302 13.62229919 C13.78482552 16.67911285 13.84365293 19.73601531 13.90234375 22.79296875 C13.94551881 24.86003538 13.98913276 26.92709289 14.03320312 28.99414062 C14.14051776 34.0728247 14.24175466 39.15159845 14.33984375 44.23046875 C14.88516754 43.74323837 15.43049133 43.256008 15.99234009 42.75401306 C16.70981415 42.11838943 17.42728821 41.48276581 18.16650391 40.82788086 C18.8768277 40.19627548 19.58715149 39.5646701 20.31900024 38.91392517 C28.95613856 31.71878813 41.72550459 32.27564399 52.33984375 33.23046875 C63.89642549 35.03711783 74.20368955 42.1252646 81.33984375 51.23046875 C87.06732142 60.77262144 90.65444061 70.03284037 90.61450195 81.2512207 C90.61961288 82.00834854 90.62472382 82.76547638 90.62998962 83.54554749 C90.6437643 86.02003115 90.64293947 88.49423284 90.640625 90.96875 C90.64451587 92.69890953 90.64885134 94.42906811 90.65361023 96.15922546 C90.66104422 99.77097689 90.66079969 103.38263047 90.65551758 106.99438477 C90.64969704 111.62599743 90.66672943 116.25721355 90.68986225 120.88876057 C90.70457064 124.45491378 90.70547577 128.0209705 90.70235252 131.58714867 C90.70286622 133.29561339 90.70811311 135.00408345 90.71816444 136.71251869 C90.7304688 139.09417537 90.72377629 141.47504586 90.7121582 143.85668945 C90.71980194 144.56269287 90.72744568 145.26869629 90.73532104 145.99609375 C90.70447086 148.84992375 90.64846739 150.78076144 89.00822449 153.17082214 C86.33650297 154.86772536 83.88994746 154.55002414 80.77734375 154.48046875 C79.62105469 154.465 78.46476563 154.44953125 77.2734375 154.43359375 C74.33984375 154.23046875 74.33984375 154.23046875 72.33984375 153.23046875 C72.3317569 152.39045822 72.32367004 151.55044769 72.31533813 150.6849823 C72.23704809 142.72684935 72.14965677 134.76887771 72.05231667 126.81095409 C72.00259974 122.72076423 71.95626988 118.63059716 71.91796875 114.5402832 C71.88080217 110.58495475 71.83436227 106.62982937 71.78178024 102.6746769 C71.76340139 101.17382725 71.74823416 99.67293435 71.73649979 98.17201805 C71.63362196 78.27626289 71.63362196 78.27626289 62.48046875 61.15625 C55.48205492 54.68678605 49.12139558 52.64570167 39.6328125 52.875 C32.76304696 53.61657611 26.20443447 56.22688972 21.33984375 61.23046875 C16.07309182 68.26820452 14.04005055 75.15569072 14.05273438 83.9699707 C14.04248482 85.07859215 14.04248482 85.07859215 14.0320282 86.20960999 C14.01852178 87.80115574 14.0094164 89.39274387 14.00431824 90.98433876 C13.99598444 93.50177045 13.97544328 96.01884715 13.95178223 98.53617859 C13.89556261 104.78085818 13.8600724 111.02562329 13.82415771 117.27044678 C13.79295802 122.56288811 13.75383223 127.85515259 13.7039032 133.1474514 C13.68380356 135.63033248 13.67551261 138.11307802 13.66760254 140.59602356 C13.65463738 142.11000064 13.64111815 143.62397312 13.62695312 145.13793945 C13.62793503 145.83040771 13.62891693 146.52287598 13.62992859 147.23632812 C13.56754451 152.00276799 13.56754451 152.00276799 11.33984375 154.23046875 C8.79449234 154.42895946 6.38267616 154.5089865 3.83984375 154.48046875 C3.15019531 154.48820312 2.46054687 154.4959375 1.75 154.50390625 C-3.40682332 154.48380168 -3.40682332 154.48380168 -5.66015625 152.23046875 C-5.91183853 149.64735413 -5.91183853 149.64735413 -5.91412354 146.30883789 C-5.91976318 145.04685577 -5.92540283 143.78487366 -5.93121338 142.48464966 C-5.92732441 141.07830754 -5.92322805 139.67196598 -5.91894531 138.265625 C-5.92165411 136.79075955 -5.92521441 135.31589545 -5.92956543 133.84103394 C-5.93870499 129.82871578 -5.93513876 125.81650016 -5.92880726 121.80418015 C-5.92375535 117.61171943 -5.92843645 113.41926769 -5.93157959 109.22680664 C-5.9352216 102.18536803 -5.93041399 95.14397132 -5.92089844 88.10253906 C-5.91001343 79.95344083 -5.91353884 71.80444267 -5.92455125 63.65534687 C-5.93361744 56.66763863 -5.93491268 49.67996057 -5.92967391 42.69224834 C-5.92655052 38.51487779 -5.92615493 34.33755432 -5.93274689 30.16018677 C-5.93851004 26.23351465 -5.93454248 22.30697196 -5.92295837 18.38031387 C-5.92030625 16.9363031 -5.92108626 15.4922815 -5.9254837 14.04827499 C-5.9309186 12.08288707 -5.92290657 10.11747543 -5.91412354 8.15209961 C-5.91336948 7.05038925 -5.91261543 5.94867889 -5.91183853 4.81358337 C-5.49270041 0.51180331 -4.19150693 0.26392626 0 0 Z " fill="#2B358C" transform="translate(798.66015625,1331.76953125)"/>
<path d="M0 0 C11.5200464 8.41480927 16.89074156 19.85602815 19.34765625 33.71484375 C19.87870375 39.66689816 19.77131678 45.6550568 19.74609375 51.625 C19.74811889 53.32702255 19.75103398 55.02904424 19.75479126 56.73106384 C19.7591831 60.27188502 19.75287858 63.81247717 19.73876953 67.35327148 C19.72156087 71.89287499 19.73161167 76.43195086 19.74948692 80.97153568 C19.76030973 84.47421781 19.75688741 87.97677391 19.74910355 91.47945976 C19.74710346 93.15442404 19.74955411 94.82939977 19.75654221 96.50435066 C19.76414502 98.83532433 19.7525753 101.16542916 19.73583984 103.49633789 C19.74191254 104.18670639 19.74798523 104.87707489 19.75424194 105.58836365 C19.71665733 108.40814899 19.64350473 110.2879065 18.0128479 112.64109802 C15.36171109 114.35059904 12.95521894 114.1108408 9.84765625 114.08984375 C8.70296875 114.09757812 7.55828125 114.1053125 6.37890625 114.11328125 C3.34765625 113.71484375 3.34765625 113.71484375 1.68125916 112.63061523 C-0.35838573 109.7005875 -0.02387267 107.20183551 -0.02124023 103.6640625 C-0.02688995 102.59263252 -0.02688995 102.59263252 -0.03265381 101.4995575 C-0.03908962 99.94777742 -0.03875308 98.39595794 -0.0324688 96.84417725 C-0.02335148 94.37908745 -0.03359277 91.91475741 -0.04908752 89.44970703 C-0.0891462 82.44093035 -0.09040411 75.43221196 -0.08813477 68.42333984 C-0.08808332 64.13383071 -0.10742954 59.84472628 -0.13746834 55.55532837 C-0.14820113 53.1429723 -0.13621285 50.73142101 -0.12364197 48.3190918 C-0.14939692 37.03747704 -1.43041368 26.82597711 -9.62109375 18.375 C-16.10653852 13.0743961 -23.27980756 12.04307397 -31.4765625 12.33203125 C-39.48731985 13.2976576 -46.96220726 16.96148352 -52.65234375 22.71484375 C-57.34049694 29.4205355 -58.79537287 35.00984227 -58.82592773 43.11376953 C-58.83261475 43.85241241 -58.83930176 44.5910553 -58.84619141 45.3520813 C-58.86021288 46.95187883 -58.87211611 48.55169602 -58.88213921 50.15152359 C-58.89857447 52.68123851 -58.92181015 55.21080638 -58.94703674 57.740448 C-59.01776578 64.9312202 -59.07808249 72.12204993 -59.12915039 79.31298828 C-59.16087897 83.7137671 -59.20212945 88.11437224 -59.24934578 92.51501083 C-59.26539213 94.19356046 -59.27770148 95.87215001 -59.28625298 97.55075455 C-59.29835998 99.89225254 -59.32248651 102.23333885 -59.34936523 104.57470703 C-59.34995438 105.27188843 -59.35054352 105.96906982 -59.35115051 106.68737793 C-59.42443842 111.48693842 -59.42443842 111.48693842 -61.65234375 113.71484375 C-64.19769516 113.91333446 -66.60951134 113.9933615 -69.15234375 113.96484375 C-69.84199219 113.97257812 -70.53164063 113.9803125 -71.2421875 113.98828125 C-76.39901082 113.96817668 -76.39901082 113.96817668 -78.65234375 111.71484375 C-78.90402603 109.6783371 -78.90402603 109.6783371 -78.90631104 107.12194824 C-78.91195068 106.15446152 -78.91759033 105.18697479 -78.92340088 104.19017029 C-78.91935242 103.125168 -78.91530396 102.06016571 -78.91113281 100.96289062 C-78.91463745 99.84415054 -78.91814209 98.72541046 -78.92175293 97.57276917 C-78.93058488 93.85964833 -78.92471585 90.14671666 -78.91796875 86.43359375 C-78.91931498 83.86291466 -78.92125515 81.29223583 -78.92376709 78.72155762 C-78.92672034 73.32785389 -78.92260384 67.9342218 -78.91308594 62.54052734 C-78.90220107 56.30002377 -78.90572654 50.05965086 -78.91673875 43.81915045 C-78.92689901 37.82196587 -78.92583544 31.82484536 -78.91997528 25.82765198 C-78.91863727 23.27266929 -78.92029174 20.71768329 -78.92493439 18.16270447 C-78.92999062 14.59731094 -78.92230194 11.0321714 -78.91113281 7.46679688 C-78.91518127 6.40179459 -78.91922974 5.3367923 -78.92340088 4.23951721 C-78.91776123 3.27203049 -78.91212158 2.30454376 -78.90631104 1.30773926 C-78.90555698 0.46413094 -78.90480293 -0.37947739 -78.90402603 -1.2486496 C-78.65234375 -3.28515625 -78.65234375 -3.28515625 -76.65234375 -5.28515625 C-74.10699234 -5.48364696 -71.69517616 -5.563674 -69.15234375 -5.53515625 C-68.46269531 -5.54289062 -67.77304687 -5.550625 -67.0625 -5.55859375 C-61.90567668 -5.53848918 -61.90567668 -5.53848918 -59.65234375 -3.28515625 C-59.23828125 -0.90234375 -59.23828125 -0.90234375 -59.02734375 1.83984375 C-58.95257812 2.74992187 -58.8778125 3.66 -58.80078125 4.59765625 C-58.75179687 5.29632812 -58.7028125 5.995 -58.65234375 6.71484375 C-58.13027344 6.19535156 -57.60820313 5.67585938 -57.0703125 5.140625 C-41.24900741 -9.84943814 -18.3948697 -11.92314058 0 0 Z " fill="#2B358C" transform="translate(992.65234375,1372.28515625)"/>
<path d="M0 0 C0.92393555 0.00902344 1.84787109 0.01804687 2.79980469 0.02734375 C13.48908651 0.29862619 20.83493968 2.76631754 28.609375 10.2890625 C35.89587002 18.05567541 35.89587002 18.05567541 37.5625 23.5 C36.21196257 27.73168395 33.51560204 29.5329004 30.08203125 32.21484375 C27.625 33.4375 27.625 33.4375 25 33.33203125 C22.31640065 32.32126768 21.46670106 31.48638969 19.8125 29.1875 C16.02272306 24.41591556 11.39575605 21.36108535 5.625 19.4375 C-1.65700575 18.87651585 -7.83631518 19.05139536 -14.375 22.4375 C-18.3207466 26.58559258 -19.82909933 29.54233903 -19.703125 35.34765625 C-19.1244222 39.03344191 -17.17503534 41.19618731 -14.375 43.4375 C-8.4849058 47.39262524 -1.84479428 49.2817528 4.875 51.3125 C17.45435911 55.14041118 31.12562107 59.66441017 37.95703125 71.8046875 C42.28894379 81.14202548 42.98230263 90.14545686 39.66015625 99.98828125 C35.63427973 109.51365702 29.32832134 115.53240401 19.9375 119.6875 C6.80184182 124.48051115 -7.81817761 125.00719981 -20.8515625 119.65625 C-29.32911672 115.56182753 -37.46776997 109.5884883 -41.58984375 100.8671875 C-42.52825576 97.96324584 -42.51605066 95.47008913 -42.375 92.4375 C-38.45648957 89.99931573 -34.71238229 87.81196704 -30.25 86.5625 C-26.07438952 87.83333797 -24.64338841 90.6361343 -22.1640625 94.109375 C-18.22387609 99.23677915 -13.53746489 101.70383359 -7.375 103.4375 C0.65760786 104.30425568 7.72899084 103.87167708 14.625 99.4375 C18.17511479 96.49166007 20.56939348 93.97660803 21.625 89.4375 C21.72078916 84.158625 21.72078916 84.158625 19.2734375 79.6953125 C13.39826676 74.30303251 5.98819423 72.48247791 -1.53051758 70.39672852 C-14.39776493 66.79250968 -28.2853588 62.40577422 -35.64453125 50.359375 C-39.94705503 42.14961231 -40.68455185 33.52770498 -38.7265625 24.421875 C-35.70663148 15.18140232 -30.51519908 9.10899642 -21.9765625 4.54296875 C-14.52885845 1.37825367 -8.12484202 -0.09492331 0 0 Z " fill="#2B358C" transform="translate(1727.375,1364.5625)"/>
<path d="M0 0 C2.3125 2.5 2.3125 2.5 2.70703125 5.3203125 C2.21588084 9.278693 0.90113079 10.88189565 -1.6875 13.875 C-2.43 14.74898437 -3.1725 15.62296875 -3.9375 16.5234375 C-4.515 17.17570312 -5.0925 17.82796875 -5.6875 18.5 C-9.42369683 17.9662576 -11.51956827 17.13412805 -14.375 14.6875 C-23.25482967 7.67799499 -33.59798561 5.54678508 -44.6875 6.5 C-55.6061078 9.06133561 -65.36126351 15.16917863 -71.6875 24.5 C-77.91761574 36.11642348 -81.09184035 47.56665823 -77.5625 60.6875 C-75.70925656 66.08035058 -72.84605042 70.77906501 -69.6875 75.5 C-69.089375 76.4075 -68.49125 77.315 -67.875 78.25 C-60.07963078 86.26809406 -49.51486873 90.91886604 -38.40625 91.52734375 C-28.1359773 91.42405078 -18.95696557 87.50501901 -11.3125 80.625 C-8.6875 78.5 -8.6875 78.5 -6.2578125 78.10546875 C-2.78882395 78.63794268 -1.99271196 79.90023245 0.0625 82.6875 C0.65546875 83.46480469 1.2484375 84.24210937 1.859375 85.04296875 C3.44361894 87.72170379 4.25425585 89.37908446 4.3125 92.5 C-1.95636072 102.76525944 -15.9856118 107.33542347 -27.02734375 110.08203125 C-43.65027243 112.69385705 -59.50399654 109.18258064 -73.3828125 99.6484375 C-87.34861088 88.92851275 -96.63645 74.69194272 -99.171875 57.1484375 C-100.70903475 38.20520415 -95.98164431 21.68530339 -83.625 7.05859375 C-61.01871087 -16.79911495 -26.25093207 -19.03039598 0 0 Z " fill="#2B358C" transform="translate(768.6875,1377.5)"/>
<path d="M0 0 C0.73299316 0.00054477 1.46598633 0.00108953 2.22119141 0.00165081 C3.06246582 -0.00254368 3.90374023 -0.00673817 4.77050781 -0.01105976 C6.15761963 -0.0026305 6.15761963 -0.0026305 7.57275391 0.00596905 C9.03140869 0.00312153 9.03140869 0.00312153 10.51953125 0.00021648 C13.74568653 -0.00349926 16.97161851 0.00722431 20.19775391 0.01842022 C22.43212864 0.01961168 24.66650387 0.02006525 26.90087891 0.01980877 C31.5884107 0.02137502 36.27586628 0.02967547 40.96337891 0.04307842 C46.98293105 0.06006844 53.00239934 0.06389284 59.02197266 0.06313324 C63.63721523 0.06340471 68.25243934 0.06888214 72.86767578 0.07613468 C75.08772644 0.07932504 77.3077792 0.08128961 79.52783203 0.08202839 C82.62617585 0.08418806 85.72442937 0.09292427 88.82275391 0.1036253 C89.74749512 0.10317211 90.67223633 0.10271893 91.625 0.10225201 C92.46627441 0.10651699 93.30754883 0.11078197 94.17431641 0.1151762 C94.90730957 0.11685205 95.64030273 0.11852789 96.39550781 0.12025452 C98.19775391 0.24888897 98.19775391 0.24888897 100.19775391 1.24888897 C100.25157497 3.87416086 100.29133703 6.4983361 100.32275391 9.12388897 C100.33951172 9.87025616 100.35626953 10.61662334 100.37353516 11.38560772 C100.3911498 13.34083358 100.3009558 15.29630918 100.19775391 17.24888897 C98.19775391 19.24888897 98.19775391 19.24888897 94.29882812 19.47593975 C92.61666598 19.47562238 90.93448371 19.46428292 89.25244141 19.44420147 C88.3674295 19.44137157 87.4824176 19.43854168 86.57058716 19.43562603 C83.73783978 19.42441137 80.90540607 19.39930467 78.07275391 19.37388897 C76.15478972 19.36386082 74.23682058 19.35473469 72.31884766 19.34654522 C67.61169515 19.32446786 62.90477774 19.28992942 58.19775391 19.24888897 C58.20051929 19.84911027 58.20328466 20.44933157 58.20613384 21.06774139 C58.27235292 35.66451548 58.3220146 50.2612807 58.35319042 64.85816956 C58.36866711 71.91709375 58.38977179 78.97591775 58.42407227 86.03477764 C58.45713837 92.84284894 58.47459125 99.65081592 58.48238564 106.45896244 C58.48794254 109.0605836 58.49879332 111.66219886 58.51494408 114.26377583 C58.53661883 117.89867026 58.53972495 121.53313011 58.53833008 125.16807842 C58.54911591 126.251329 58.55990173 127.33457958 58.5710144 128.45065594 C58.56482841 129.93352596 58.56482841 129.93352596 58.55851746 131.44635296 C58.56128284 132.30638581 58.56404821 133.16641867 58.56689739 134.05251312 C58.11140164 136.76267842 57.40412665 137.64594492 55.19775391 139.24888897 C51.91259766 139.61217022 51.91259766 139.61217022 48.13525391 139.56138897 C46.88615234 139.55752178 45.63705078 139.55365459 44.35009766 139.54967022 C41.19775391 139.24888897 41.19775391 139.24888897 39.19775391 137.24888897 C38.95165825 135.15994358 38.95165825 135.15994358 38.95724487 132.52864361 C38.95449554 131.5330241 38.95174622 130.53740459 38.94891357 129.5116148 C38.95610413 128.41541821 38.96329468 127.31922161 38.97070312 126.18980694 C38.97041107 125.03859356 38.97011902 123.88738018 38.96981812 122.70128155 C38.97121584 118.88113755 38.98679799 115.06118656 39.00244141 111.24107647 C39.00616996 108.59834684 39.00901767 105.95561583 39.01101685 103.31288433 C39.01723896 97.05845763 39.03365962 90.80410064 39.05371583 84.54970467 C39.07605212 77.43009377 39.08706253 70.31047959 39.0971067 63.19084239 C39.11802525 48.54348858 39.15321539 33.89618975 39.19775391 19.24888897 C37.40374146 19.27245464 37.40374146 19.27245464 35.57348633 19.29649639 C31.13996097 19.35075958 26.70646502 19.38522587 22.27270508 19.41368389 C20.35305853 19.42877877 18.4334465 19.4492567 16.51391602 19.47520733 C13.75609827 19.51156006 10.99873611 19.52860809 8.24072266 19.54185772 C7.38125534 19.55734158 6.52178802 19.57282543 5.63627625 19.5887785 C4.83567276 19.58900509 4.03506927 19.58923168 3.21020508 19.58946514 C2.15430428 19.59945789 2.15430428 19.59945789 1.07707214 19.60965252 C-1.41191063 19.13185464 -2.28878987 18.25271104 -3.80224609 16.24888897 C-4.16552734 12.96373272 -4.16552734 12.96373272 -4.11474609 9.18638897 C-4.11087891 7.93728741 -4.10701172 6.68818584 -4.10302734 5.40123272 C-3.78965869 2.11696644 -3.51280429 0.4851159 0 0 Z " fill="#2B358C" transform="translate(417.80224609375,1346.7511110305786)"/>
<path d="M0 0 C1.12535156 0.00580078 1.12535156 0.00580078 2.2734375 0.01171875 C3.02367187 0.00785156 3.77390625 0.00398438 4.546875 0 C10.14682697 0.01010822 10.14682697 0.01010822 11.2734375 1.13671875 C11.37229567 3.09602745 11.39975996 5.05895098 11.40042114 7.02075195 C11.40324097 8.29963287 11.40606079 9.57851379 11.40896606 10.89614868 C11.40702147 12.32659926 11.40497328 13.7570497 11.40283203 15.1875 C11.40418602 16.68354332 11.40596593 18.17958631 11.40814209 19.67562866 C11.41271675 23.74989508 11.41092673 27.82413629 11.407763 31.89840317 C11.40523957 36.15272848 11.40757689 40.40705156 11.40914917 44.66137695 C11.41097092 51.80713287 11.40856443 58.95287846 11.40380859 66.09863281 C11.39836596 74.37210447 11.40012862 82.6455515 11.405635 90.91902256 C11.41016599 98.00944766 11.41081675 105.09986532 11.40819633 112.1902914 C11.40663348 116.43078961 11.40644001 120.67127621 11.40973282 124.91177368 C11.41261133 128.89748926 11.41063621 132.88317293 11.40483856 136.86888504 C11.40351086 138.33589245 11.40390526 139.80290253 11.40610123 141.26990891 C11.40881228 143.26416684 11.40481831 145.25843062 11.40042114 147.25268555 C11.40004412 148.3713652 11.39966709 149.49004486 11.39927864 150.6426239 C11.2734375 153.13671875 11.2734375 153.13671875 10.2734375 154.13671875 C7.78284836 154.23669517 5.32616355 154.27551502 2.8359375 154.26171875 C2.14177734 154.26558594 1.44761719 154.26945312 0.73242188 154.2734375 C-4.47328262 154.26335869 -4.47328262 154.26335869 -6.7265625 153.13671875 C-6.74988998 133.33565314 -6.76754093 113.53459031 -6.77837467 93.73351383 C-6.78353795 84.54019271 -6.79058125 75.34688011 -6.80200195 66.15356445 C-6.81194782 58.14364839 -6.81841569 50.1337385 -6.82065099 42.12381643 C-6.82195827 37.87994622 -6.82504516 33.63609365 -6.83229256 29.39222908 C-6.83905124 25.40242805 -6.84117977 21.41265205 -6.83967018 17.42284584 C-6.83994658 15.9542248 -6.8419526 14.48560296 -6.84576797 13.01698685 C-6.85070278 11.02049099 -6.84896063 9.02398188 -6.84681702 7.02748108 C-6.84773881 5.9075026 -6.8486606 4.78752413 -6.84961033 3.63360691 C-6.6179056 -1.06814856 -4.1189663 0.00743496 0 0 Z " fill="#2B358C" transform="translate(1181.7265625,1331.86328125)"/>
<path d="M0 0 C1.03447266 0.01160156 1.03447266 0.01160156 2.08984375 0.0234375 C2.77949219 0.01570313 3.46914062 0.00796875 4.1796875 0 C9.33651082 0.02010457 9.33651082 0.02010457 11.58984375 2.2734375 C11.84152603 4.30994415 11.84152603 4.30994415 11.84381104 6.86633301 C11.84945068 7.83381973 11.85509033 8.80130646 11.86090088 9.79811096 C11.85685242 10.86311325 11.85280396 11.92811554 11.84863281 13.02539062 C11.85213745 14.14413071 11.85564209 15.26287079 11.85925293 16.41551208 C11.86808488 20.12863292 11.86221585 23.84156459 11.85546875 27.5546875 C11.85681498 30.12536659 11.85875515 32.69604542 11.86126709 35.26672363 C11.86422034 40.66042736 11.86010384 46.05405945 11.85058594 51.44775391 C11.83970107 57.68825748 11.84322654 63.92863039 11.85423875 70.1691308 C11.86439901 76.16631538 11.86333544 82.16343589 11.85747528 88.16062927 C11.85613727 90.71561196 11.85779174 93.27059796 11.86243439 95.82557678 C11.86749062 99.39097031 11.85980194 102.95610985 11.84863281 106.52148438 C11.85268127 107.58648666 11.85672974 108.65148895 11.86090088 109.74876404 C11.85526123 110.71625076 11.84962158 111.68373749 11.84381104 112.68054199 C11.84305698 113.52415031 11.84230293 114.36775864 11.84152603 115.23693085 C11.58984375 117.2734375 11.58984375 117.2734375 9.58984375 119.2734375 C7.04449234 119.47192821 4.63267616 119.55195525 2.08984375 119.5234375 C1.40019531 119.53117187 0.71054688 119.53890625 0 119.546875 C-5.15682332 119.52677043 -5.15682332 119.52677043 -7.41015625 117.2734375 C-7.66183853 115.23693085 -7.66183853 115.23693085 -7.66412354 112.68054199 C-7.66976318 111.71305527 -7.67540283 110.74556854 -7.68121338 109.74876404 C-7.67716492 108.68376175 -7.67311646 107.61875946 -7.66894531 106.52148438 C-7.67244995 105.40274429 -7.67595459 104.28400421 -7.67956543 103.13136292 C-7.68839738 99.41824208 -7.68252835 95.70531041 -7.67578125 91.9921875 C-7.67712748 89.42150841 -7.67906765 86.85082958 -7.68157959 84.28015137 C-7.68453284 78.88644764 -7.68041634 73.49281555 -7.67089844 68.09912109 C-7.66001357 61.85861752 -7.66353904 55.61824461 -7.67455125 49.3777442 C-7.68471151 43.38055962 -7.68364794 37.38343911 -7.67778778 31.38624573 C-7.67644977 28.83126304 -7.67810424 26.27627704 -7.68274689 23.72129822 C-7.68780312 20.15590469 -7.68011444 16.59076515 -7.66894531 13.02539062 C-7.67299377 11.96038834 -7.67704224 10.89538605 -7.68121338 9.79811096 C-7.67557373 8.83062424 -7.66993408 7.86313751 -7.66412354 6.86633301 C-7.66336948 6.02272469 -7.66261543 5.17911636 -7.66183853 4.30994415 C-7.08900359 -0.32519408 -3.94524125 0.01538106 0 0 Z " fill="#2B358C" transform="translate(1514.41015625,1366.7265625)"/>
<path d="M0 0 C5.61 0 11.22 0 17 0 C18.48619895 2.97239791 18.13177009 5.69619578 18.125 9 C18.12886719 10.8871875 18.12886719 10.8871875 18.1328125 12.8125 C18 16 18 16 17 18 C11.39 18 5.78 18 0 18 C-1.48619895 15.02760209 -1.13177009 12.30380422 -1.125 9 C-1.12757812 7.741875 -1.13015625 6.48375 -1.1328125 5.1875 C-1 2 -1 2 0 0 Z " fill="#2B358C" transform="translate(1508,1332)"/>
</svg>
