<svg xmlns="http://www.w3.org/2000/svg" width="1100" height="1100" viewBox="0 0 1100 1100"><path d="m921.723 535.513 3.96 1.309c27.28 9.031 54.131 19.437 80.63 30.525l-.473.946-1.43-.385a1573 1573 0 0 0-95.205-21.956l-2.805-.561a946 946 0 0 0-32.758-6.116l-.396.869c-7.645 16.676-18.216 32.087-32.89 43.362l-.803.627c-26.246 20.086-56.661 23.903-88.77 23.771l-8.481-.011-16.005-.033-21.67-.033q-17.028-.022-34.045-.066v-94.622c-35.552-2.31-35.552-2.31-71.115-4.158a264 264 0 0 1-9.262-.605l-.176 1.023a33 33 0 0 1-1.232 4.092l-.594 1.639-.649 1.782-.671 1.859-1.804 5.005-1.507 4.18a7700 7700 0 0 1-9.537 26.312l-5.962 16.423-2.552 7.051q-5.445 15.026-10.989 30.019h-62.777l-4.73-13.552a6072 6072 0 0 0-10.835-30.822l-5.236-14.828-.583-1.65-2.31-6.578a2365 2365 0 0 0-6.05-17.05l-.517-1.43-2.387-6.611-.836-2.31-.385-1.056a11 11 0 0 1-.858-3.982l-1.034.099a231 231 0 0 1-10.923.66l-3.729.154-.979.044c-36.377 1.496-72.677 4.213-202.928 20.856l-1.287.22-1.1.198a22 22 0 0 1-3.443.132c3.091 7.348 6.303 14.267 11.418 20.449l1.188 1.441c9.262 10.857 22.451 15.917 36.388 17.105 13.112.858 27.126-1.705 37.378-10.395l1.133-1.023 1.188-1.045c7.04-6.622 10.78-15.224 14.036-24.156h53.262c-1.815 14.509-8.624 29.436-17.6 40.898l-.924 1.221c-4.18 5.423-8.855 10.307-14.3 14.465l-1.386 1.133c-17.501 14.102-41.525 20.735-63.734 20.845l-1.452.011-4.598.011h-1.584c-7.557-.011-14.916-.187-22.374-1.551l-1.353-.22c-17.688-2.97-34.859-9.977-48.587-21.648l-1.21-1.023a121 121 0 0 1-3.542-3.256l-.792-.748c-7.205-6.831-12.837-14.421-17.754-23.034l-.583-1.012c-7.502-13.233-7.502-13.233-7.502-18.018l-12.551 2.871-7.04 1.606c-19.316 4.4-38.599 8.976-57.684 14.278l-1.375.385-6.248 1.76-1.111.319-2.013.583c-1.54.429-2.222.605-3.773.088a374 374 0 0 1 19.503-8.833l1.309-.55c41.338-17.215 84.26-30.745 127.567-41.987l1.496-.385c43.945-11.418 88.561-20.108 239.877-36.553l1.694-.088q18.975-.957 37.961-1.276l1.705-.033c42.757-.737 85.525.792 404.041 62.623M508.86 506.957c1.518 6.105 1.518 6.105 3.19 12.155l1.089 3.784c2.772 9.603 5.313 19.261 7.755 28.952l.242.957 2.937 11.704h.473l.242-1.067c4.389-19.074 10.098-37.796 15.928-56.474zm214.489 10.934v47.08l22.979.088 7.194.044 4.334.011 2.849.011c8.03.055 15.873-.429 23.595-2.86l1.177-.363a59.4 59.4 0 0 0 11.088-5.016l1.463-.836a44 44 0 0 0 7.436-5.775c1.089-1.001 1.089-1.001 2.288-1.936 3.256-2.673 5.643-6.38 7.986-9.856l.583-.869c2.046-3.069 2.046-3.069 3.542-6.413l-.473-1.43c-19.085-2.816-38.181-5.5-57.332-7.821l-1.21-.143a3190 3190 0 0 0-17.072-2.024l-1.188-.143-7.172-.825-2.244-.253-3.091-.352-1.771-.198c-1.661-.143-3.322-.143-4.994-.143" fill="#415A81"/><path d="m670.56 365.244 37.598-.066 7.634-.011h.968l14.421-.033q8.382-.022 16.775-.022l8.866-.011c24.035-.077 24.035-.077 33.572 1.573l1.551.264c16.225 2.816 32.593 8.525 46.002 18.282l1.375.99a104.5 104.5 0 0 1 29.535 33.253l.495.858c15.202 26.51 18.48 61.655 12.353 91.41l-.473.946a88 88 0 0 1-8.811-2.354l-2.695-.858-1.43-.451a1067 1067 0 0 0-39.391-11.55l.022-1.826c.374-15.807.374-15.807-1.452-31.46l-.286-1.463a88 88 0 0 0-6.369-19.943l-.451-.979a56.98 56.98 0 0 0-31.669-29.326c-10.868-3.85-21.835-4.543-33.286-4.609l-2.486-.022-9.064-.077-20.537-.176v67.056l-23.298-3.333-29.48-3.806zm-309.353 22.187.704.638 1.177 1.078c12.914 12.364 22.077 30.756 24.497 48.389v2.849h-52.778l-3.806-9.988c-5.72-11.737-14.355-19.899-26.631-24.255-14.883-4.796-31.988-4.224-46.101 2.739-15.202 7.931-23.485 22.275-28.589 38.115a114.4 114.4 0 0 0-4.774 33.902v1.892l.011 4.939.011 5.06.022 9.889q-8.085 2.387-16.192 4.686-14.553 4.092-28.952 8.624l-1.232.385-2.288.726c-1.43.451-2.618.792-4.125.792-1.958-9.867-2.563-19.701-2.53-29.755v-1.507c.11-35.508 10.934-70.125 36.289-95.722 8.085-8.008 17.743-14.278 28.061-19.019l1.65-.77c39.446-17.578 93.038-13.145 125.576 16.291m45.408-22.165 11.11-.11 3.773-.044c14.74-.187 26.807 2.266 38.379 12.034l.847.638c5.918 4.587 10.45 12.133 12.826 19.118l.363 1.045q2.409 7.04 4.675 14.124l.99 3.047a4587 4587 0 0 1 9.383 29.172q1.188 3.74 2.409 7.48l1.562 4.818.462 1.441.418 1.276a6.6 6.6 0 0 1 .297 2.497l-.88.044-11.187.583-1.815.099q-13.222.682-26.422 1.694c-4.169.319-8.294.528-12.474.44a9460 9460 0 0 1-12.837-36.377 7117 7117 0 0 0-8.833-25.058l-4.015-11.319-.605-1.694-3.806-10.758-1.232-3.487-1.705-4.829-.517-1.463-.473-1.342-.418-1.166c-.286-.935-.286-.935-.286-1.892m223.498-.099 3.476.022q4.224.022 8.437.066a61.6 61.6 0 0 1-2.772 9.449l-.55 1.518-1.815 4.939-1.287 3.509-2.002 5.478-6.402 17.633-3.113 8.591-.627 1.716-7.535 20.779a3355 3355 0 0 1-8.613 23.408l-.792-.033-10.12-.418-1.65-.066a1199 1199 0 0 0-24.86-.748 242 242 0 0 1-13.464-.638 72 72 0 0 1 2.365-8.69l.418-1.265 1.375-4.07.968-2.882a3091 3091 0 0 1 7.953-23.419l.407-1.188 2.563-7.612 1.76-5.269.825-2.486c2.552-7.777 5.599-14.729 10.835-21.109l.781-1.012c5.72-7.117 14.784-12.221 23.474-14.685l1.375-.396c6.116-1.485 12.32-1.188 18.568-1.122m46.332 283.789 1.452.011c6.996.154 11.891 2.651 17.424 6.853l.066-1.012.11-1.309.099-1.309c.198-1.133.198-1.133 1.144-2.079a44 44 0 0 1 3.839-.088h1.078c2.629.022 2.629.022 3.179.561a33 33 0 0 1 .066 1.991l.011 1.309v1.441l.011 1.507.022 4.983.011 1.716.022 9.031q0 4.642.044 9.295l.022 7.172.011 3.421c.066 9.416-.407 17.919-7.051 25.256-6.985 6.589-15.917 7.909-25.168 7.689a23.1 23.1 0 0 1-8.899-2.068l-1.353-.583c-4.147-1.936-4.147-1.936-5.302-3.696-.066-2.222 1.419-4.532 2.849-6.182.88-.418.88-.418 1.903-.473 1.177.44 1.177.44 2.464 1.1 5.797 2.959 13.255 3.212 19.47 1.452 4.763-1.727 8.382-4.433 10.791-8.921.66-2.013.902-3.905 1.045-6.006l-1.254 1.221a28.27 28.27 0 0 1-19.162 6.523c-7.755-.693-14.102-3.575-19.547-9.163l-.913-.88c-5.324-5.511-7.425-13.09-7.37-20.581.286-8.745 4.07-15.367 10.186-21.329a26.95 26.95 0 0 1 18.7-6.864m-14.355 15.433c-4.114 5.247-5.445 10.978-4.807 17.589 1.1 5.665 4.334 10.472 9.031 13.794 4.796 2.926 9.185 3.839 14.74 2.849a20.57 20.57 0 0 0 12.364-9.515c2.695-5.258 3.817-10.417 2.508-16.269a29.7 29.7 0 0 0-3.938-7.502l-.803-1.221a20.9 20.9 0 0 0-14.685-6.633c-5.676.22-10.549 2.75-14.421 6.908m-362.912-10.45c6.71 5.302 10.681 11.814 11.803 20.361q.066.99.088 1.991l.055 1.364c.088 3.652.088 3.652-1.012 5.291-.858.176-.858.176-1.903.176l-1.21.011-1.32-.011h-1.397l-4.565-.022-3.168-.011q-4.169 0-8.338-.033l-8.503-.033q-8.349-.022-16.687-.066l1.133 2.519.638 1.419a23.4 23.4 0 0 0 2.519 4.147l1.045 1.43c3.113 3.641 7.491 5.544 12.155 6.127 5.698.341 10.461-1.705 14.773-5.346 1.045-.77 1.045-.77 2.167-.968 1.826.297 2.299 1.166 3.366 2.64l1.034 1.375c.66 1.419.66 1.419.462 2.893-2.266 4.18-7.832 6.215-12.122 7.634-7.491 2.123-15.147 1.056-21.978-2.563-6.963-4.169-12.199-10.538-14.3-18.436a31.9 31.9 0 0 1 4.004-24.112 29.26 29.26 0 0 1 17.523-12.188c8.206-1.32 16.786-.396 23.727 4.455m-32.483 11.803c-1.749 2.277-3.652 5.192-3.652 8.173h38.995c-1.21-5.423-3.366-9.702-8.085-12.837-9.625-5.137-20.064-3.773-27.258 4.664m517.781-10.604c5.467 4.367 8.954 11.385 9.79 18.249q.11 2.2.088 4.4l.022 1.177q0 1.496-.11 2.992c-1.287 1.287-2.277 1.067-4.026 1.067l-1.309-.011h-1.375l-4.521-.011h-3.135l-8.25-.022-8.415-.022-16.522-.044 1.1 2.728.627 1.529c2.024 4.51 5.566 7.909 10.043 9.944 4.884 1.848 9.493 1.958 14.388.055 3.234-1.727 3.234-1.727 5.94-4.147.715-.605.715-.605 1.87-.836 1.727.319 2.222 1.089 3.278 2.453l1.001 1.254c.825 1.408 1.034 2.057.748 3.652-2.629 3.85-9.119 6.633-13.519 7.843a32.34 32.34 0 0 1-22.616-4.521 44 44 0 0 1-4.752-4.279l-.913-.88c-5.203-5.39-7.425-12.892-7.37-20.24.275-8.228 3.52-15.268 9.24-21.197 11.528-9.735 26.587-9.273 38.72-1.133m-34.551 10.978c-1.947 2.541-2.684 4.576-3.212 7.755h38.522c-.66-5.302-2.926-9.02-7.139-12.364-9.922-6.127-20.735-4.081-28.171 4.609M624.899 654.39a30.8 30.8 0 0 1 11.891 20.449c.748 8.415-1.474 15.719-6.534 22.44-4.631 5.533-11 9.361-18.194 10.373a32.45 32.45 0 0 1-22.979-6.512c-6.435-5.478-9.724-12.892-10.45-21.208a31.46 31.46 0 0 1 8.008-21.989c10.373-10.45 26.202-12.012 38.258-3.553m-31.9 10.23c-4.18 5.39-5.291 11.165-4.719 17.831 1.045 4.939 4.081 9.746 8.085 12.837 5.137 3.113 9.735 4.455 15.697 3.333 5.39-1.474 9.603-4.818 12.606-9.515a22.22 22.22 0 0 0 1.87-17.27c-2.321-6.039-6.622-10.417-12.408-13.211-7.854-3.025-15.598.275-21.131 5.995m-63.206-13.563 1.254.506a29.7 29.7 0 0 1 14.927 15.708c2.816 8.206 2.706 16.445-1.045 24.332-4.037 7.524-9.823 12.265-17.864 15.081a29.7 29.7 0 0 1-22.495-2.464 30.8 30.8 0 0 1-14.146-19.041c-1.551-7.524-.594-15.345 3.388-21.989 4.543-6.787 10.648-11.858 18.733-13.816 5.907-.847 11.726-.66 17.27 1.672m-25.63 13.321a33 33 0 0 0-1.958 2.849l-.539.88a21.45 21.45 0 0 0-1.947 16.225 20.9 20.9 0 0 0 4.4 7.612l.737.869c3.278 3.597 7.711 5.918 12.573 6.259 6.38.055 11.011-2.112 15.565-6.49 4.081-4.422 5.632-9.746 5.511-15.653-.583-6.501-3.663-11.429-8.58-15.576-8.305-6.204-18.843-4.389-25.751 3.014m-124.377-30.998 2.09.022h1.078c2.629.022 2.629.022 3.179.561q.088.957.099 1.936l.033 1.243.022 1.353.033 1.375.088 4.356.066 2.948.143 7.249.781-.704 1.034-.913 1.023-.913c4.103-3.421 10.186-3.157 15.224-2.706 5.5.858 10.395 4.235 13.794 8.558 2.728 4.543 4.433 8.943 4.411 14.278l.011 1.089v3.531l.011 2.464v5.148l.011 6.611.011 5.093.011 2.442v3.399l.011 1.023c-.011 1.353-.044 2.277-.825 3.41-1.265.803-2.431.66-3.916.627l-1.661-.022c-1.397-.099-1.397-.099-2.343-.572l-.011-1.21-.121-11.352-.066-5.83q-.022-2.827-.066-5.643l-.022-2.145c-.044-9.46-.044-9.46-4.4-17.6-3.333-3.08-6.358-4.048-10.868-3.938a14.08 14.08 0 0 0-8.701 3.971 16.72 16.72 0 0 0-3.465 10.813l-.011 1.067-.011 2.266-.022 3.586-.066 8.91-.055 7.546-.022 3.542-.022 2.156v1.001c-.033 2.266-.033 2.266-1.089 3.322a44 44 0 0 1-3.564.121l-.99.011c-2.453-.011-2.453-.011-3.52-1.078-.121-1.232-.121-1.232-.121-2.816l-.011-1.815v-65.45c.198-2.046.814-2.167 2.816-2.288m92.246 19.228c5.478 4.004 8.03 9.438 9.196 16.038.253 2.827.198 5.676.187 8.514v2.431l-.011 5.049v13.86l-.011 3.322.011.99c-.022 1.342-.055 2.233-.825 3.355-1.265.814-2.409.704-3.883.693l-1.65.011c-1.441-.187-1.441-.187-2.233-.704-.968-1.397-.814-2.585-.814-4.268v-3.245l-.011-3.52q-.033-5.005-.022-9.999l-.022-6.116.011-3.443c-.011-5.368-.616-10.219-4.521-14.245-3.08-2.519-6.49-3.014-10.395-2.871a17.05 17.05 0 0 0-10.065 4.939c-2.233 3.19-2.926 5.852-2.937 9.702l-.011 1.067-.022 2.288-.033 3.608q-.055 5.126-.088 10.263l-.055 6.281-.022 2.398-.033 3.344v1.001c-.033 2.288-.033 2.288-1.089 3.344a44 44 0 0 1-3.564.121l-.99.011c-2.453-.011-2.453-.011-3.52-1.078-.121-.968-.121-.968-.121-2.189l-.011-1.397v-40.92l.011-5.082v-1.54l.011-1.397v-1.21c.121-.968.121-.968 1.067-1.925a44 44 0 0 1 3.564-.121l.99-.011c2.453.011 2.453.011 3.52 1.078.198 1.133.198 1.133.297 2.442l.11 1.309.066 1.012.748-.748a21.67 21.67 0 0 1 27.137-2.442m349.448-3.674 1.331.011c5.082.132 8.58 1.298 12.276 4.884 3.465 3.696 3.465 3.696 4.257 6.281-.638 2.013-1.925 2.871-3.553 4.147-1.166.583-1.166.583-2.42.528a4.4 4.4 0 0 1-2.464-1.969 13.97 13.97 0 0 0-6.743-4.642c-3.465-.264-6.402-.187-9.515 1.43-1.881 1.969-2.596 3.377-2.53 6.138.275 1.749 1.199 2.783 2.53 3.85 2.805 1.881 5.962 2.783 9.152 3.74 5.984 1.815 12.485 3.971 15.73 9.746 2.057 4.444 2.387 8.723.814 13.398-1.914 4.532-4.917 7.392-9.383 9.372-6.248 2.277-13.2 2.53-19.393-.011-4.037-1.947-7.898-4.785-9.867-8.932a11 11 0 0 1-.374-4.004c1.859-1.155 3.641-2.2 5.764-2.794 1.991.605 2.662 1.936 3.85 3.586 1.87 2.442 4.103 3.608 7.029 4.433 3.817.418 7.183.209 10.461-1.903 1.683-1.397 2.827-2.596 3.333-4.752.044-2.508.044-2.508-1.122-4.631-2.794-2.563-6.314-3.432-9.889-4.422-6.116-1.716-12.727-3.795-16.225-9.526-2.046-3.905-2.398-8.008-1.463-12.331 1.441-4.389 3.905-7.282 7.964-9.449 3.542-1.507 6.589-2.2 10.45-2.156m-455.928 6.138c1.1 1.188 1.1 1.188 1.287 2.53-.231 1.881-.858 2.64-2.09 4.07l-1.067 1.265-.836.935a7.04 7.04 0 0 1-4.136-1.815c-4.224-3.333-9.141-4.345-14.421-3.894a21.12 21.12 0 0 0-12.837 8.558c-2.959 5.522-4.477 10.967-2.794 17.215.88 2.563 2.244 4.796 3.74 7.04l.858 1.309c3.707 3.817 8.734 6.028 14.014 6.314a19.25 19.25 0 0 0 12.881-5.181c1.243-1.012 1.243-1.012 2.398-1.199 1.65.253 2.024.858 3.003 2.178l.858 1.122a6.16 6.16 0 0 1 1.166 3.542c-2.981 4.884-9.658 7.051-14.905 8.36a29.8 29.8 0 0 1-22.044-4.961c-6.644-5.093-11.055-11.869-12.265-20.207-.726-9.009 1.518-16.863 7.392-23.826 10.747-11.341 27.28-12.408 39.765-3.355m-166.837-14.63h1.056l1.21-.011 1.331.011h1.397l4.598.011h3.19l6.688.011 8.591.011 6.589.011h3.168l4.422.011h1.331l1.21.011h1.056c.858.066.858.066 1.804.539l.055 3.74.022 1.078a44 44 0 0 1-.088 2.794c-.946.946-.946.946-2.805 1.056l-2.398-.011h-1.276q-2.024 0-4.037-.033l-2.739-.011-6.721-.044v.869l.066 20.823.033 10.076.033 9.713.011 3.707.011 5.181.011 1.562v2.662c-.22 1.287-.55 1.705-1.606 2.475-1.562.176-1.562.176-3.355.154h-1.804c-1.496-.143-1.496-.143-2.453-1.089-.121-.99-.121-.99-.11-2.244v-1.43l.011-1.584v-1.661l.011-5.445v-3.773q0-4.466.022-8.921l.022-10.153.044-20.9-1.727.022-6.325.055-2.739.033q-1.958.022-3.938.033l-1.243.022h-1.155l-1.012.011c-1.188-.231-1.606-.649-2.321-1.595-.176-1.562-.176-1.562-.154-3.355v-1.804c.154-1.562.286-2.343 1.947-2.563m363.374-7.128h2.156c2.662 0 2.662 0 3.201.539q.055 1.408.066 2.794v68.321c-.066 1.188-.066 1.188-.539 1.661a77 77 0 0 1-3.542.055h-1.001c-2.475 0-2.475 0-3.553-.539l-.022-28.248-.011-13.112-.011-11.429v-18.293c.11-2.233 1.298-1.727 3.256-1.727m158.213 16.555.99.011.99-.011c2.453.011 2.453.011 3.52 1.078.121.968.121.968.121 2.189l.011 1.397v40.92l-.011 5.082v1.54l-.011 1.397v1.21c-.121.968-.121.968-1.067 1.925a44 44 0 0 1-3.564.121l-.99.011c-2.453-.011-2.453-.011-3.52-1.078-.121-.968-.121-.968-.121-2.189l-.011-1.397v-40.92l.011-5.082v-1.54l.011-1.397v-1.21c.275-2.2 1.771-2.046 3.641-2.046m-3.047-16.522h8.085c.704 1.408.539 2.706.539 4.279v1.815c-.066 1.518-.066 1.518-.539 2.464h-8.085c-.704-1.408-.539-2.706-.539-4.279v-1.815c.066-1.518.066-1.518.539-2.464" fill="#2B358C"/></svg>